<svg width="73" height="107" viewBox="0 0 73 107" fill="none" xmlns="http://www.w3.org/2000/svg">
<g id="&#240;&#159;&#166;&#134; icon &#34;multiple pages&#34;">
<path id="Vector" d="M17.3334 83.6506H30.75H44.1667" stroke="black" stroke-width="4" stroke-linecap="round" stroke-linejoin="round"/>
<path id="Vector_2" d="M17.3334 63.2379H19.25H21.1667" stroke="black" stroke-width="4" stroke-linecap="round" stroke-linejoin="round"/>
<path id="Vector_3" d="M17.3334 42.8253H23.0834H28.8334" stroke="black" stroke-width="4" stroke-linecap="round" stroke-linejoin="round"/>
<path id="Vector_4" d="M17.3334 2H53.75L71 24.9642V88.7538" stroke="black" stroke-width="4" stroke-linecap="round" stroke-linejoin="round"/>
<path id="Vector_5" d="M2 96.4084V24.9641C2 20.7365 4.57435 17.3093 7.75 17.3093H45.1308C45.7406 17.3093 46.3256 17.6319 46.7569 18.2062L58.8265 34.2736C59.2577 34.8478 59.5 35.6266 59.5 36.4387V96.4084C59.5 100.636 56.9255 104.063 53.75 104.063H7.75C4.57435 104.063 2 100.636 2 96.4084Z" stroke="black" stroke-width="4" stroke-linecap="round" stroke-linejoin="round"/>
<path id="Vector_6" d="M44.1666 17.3093V34.6601C44.1666 36.3511 45.1963 37.722 46.4666 37.722H59.5" stroke="black" stroke-width="4" stroke-linecap="round" stroke-linejoin="round"/>
</g>
</svg>
