<svg width="70" height="92" viewBox="0 0 70 92" fill="none" xmlns="http://www.w3.org/2000/svg">
<g id="&#240;&#159;&#166;&#134; icon &#34;multiple pages&#34;">
<path id="Vector" d="M16.6666 71.8521H29.5H42.3333" stroke="black" stroke-width="4" stroke-linecap="round" stroke-linejoin="round"/>
<path id="Vector_2" d="M16.6666 54.3889H18.5H20.3333" stroke="black" stroke-width="4" stroke-linecap="round" stroke-linejoin="round"/>
<path id="Vector_3" d="M16.6666 36.926H22.1666H27.6666" stroke="black" stroke-width="4" stroke-linecap="round" stroke-linejoin="round"/>
<path id="Vector_4" d="M16.6666 2H51.5L68 21.6459V76.2178" stroke="black" stroke-width="4" stroke-linecap="round" stroke-linejoin="round"/>
<path id="Vector_5" d="M2 82.7663V21.6458C2 18.0291 4.46242 15.0972 7.5 15.0972H43.2555C43.8389 15.0972 44.3984 15.3731 44.8109 15.8644L56.3558 29.6101C56.7683 30.1013 57 30.7676 57 31.4623V82.7663C57 86.3829 54.5375 89.3149 51.5 89.3149H7.5C4.46242 89.3149 2 86.3829 2 82.7663Z" stroke="black" stroke-width="4" stroke-linecap="round" stroke-linejoin="round"/>
<path id="Vector_6" d="M42.3333 15.0972V29.9407C42.3333 31.3874 43.3181 32.5602 44.5333 32.5602H56.9999" stroke="black" stroke-width="4" stroke-linecap="round" stroke-linejoin="round"/>
</g>
</svg>
